<svg width="16" height="14" viewBox="0 0 16 14" fill="none" xmlns="http://www.w3.org/2000/svg">
<path fill-rule="evenodd" clip-rule="evenodd" d="M4.85398 3.14606C4.90054 3.1925 4.93748 3.24768 4.96269 3.30842C4.9879 3.36917 5.00087 3.43429 5.00087 3.50006C5.00087 3.56583 4.9879 3.63095 4.96269 3.69169C4.93748 3.75244 4.90054 3.80761 4.85398 3.85406L1.70698 7.00006L4.85398 10.1461C4.94786 10.2399 5.00061 10.3673 5.00061 10.5001C5.00061 10.6328 4.94786 10.7602 4.85398 10.8541C4.76009 10.9479 4.63275 11.0007 4.49998 11.0007C4.3672 11.0007 4.23986 10.9479 4.14598 10.8541L0.645978 7.35406C0.599415 7.30761 0.562472 7.25244 0.537266 7.19169C0.512059 7.13095 0.499084 7.06583 0.499084 7.00006C0.499084 6.93429 0.512059 6.86917 0.537266 6.80842C0.562472 6.74768 0.599415 6.6925 0.645978 6.64606L4.14598 3.14606C4.19242 3.09949 4.2476 3.06255 4.30834 3.03735C4.36909 3.01214 4.43421 2.99916 4.49998 2.99916C4.56575 2.99916 4.63087 3.01214 4.69161 3.03735C4.75236 3.06255 4.80753 3.09949 4.85398 3.14606V3.14606ZM11.146 3.14606C11.0994 3.1925 11.0625 3.24768 11.0373 3.30842C11.0121 3.36917 10.9991 3.43429 10.9991 3.50006C10.9991 3.56583 11.0121 3.63095 11.0373 3.69169C11.0625 3.75244 11.0994 3.80761 11.146 3.85406L14.293 7.00006L11.146 10.1461C11.0995 10.1925 11.0626 10.2477 11.0375 10.3085C11.0123 10.3692 10.9993 10.4343 10.9993 10.5001C10.9993 10.5658 11.0123 10.6309 11.0375 10.6916C11.0626 10.7524 11.0995 10.8076 11.146 10.8541C11.1925 10.9005 11.2477 10.9374 11.3084 10.9626C11.3691 10.9877 11.4342 11.0007 11.5 11.0007C11.5657 11.0007 11.6308 10.9877 11.6916 10.9626C11.7523 10.9374 11.8075 10.9005 11.854 10.8541L15.354 7.35406C15.4005 7.30761 15.4375 7.25244 15.4627 7.19169C15.4879 7.13095 15.5009 7.06583 15.5009 7.00006C15.5009 6.93429 15.4879 6.86917 15.4627 6.80842C15.4375 6.74768 15.4005 6.6925 15.354 6.64606L11.854 3.14606C11.8075 3.09949 11.7524 3.06255 11.6916 3.03735C11.6309 3.01214 11.5657 2.99916 11.5 2.99916C11.4342 2.99916 11.3691 3.01214 11.3083 3.03735C11.2476 3.06255 11.1924 3.09949 11.146 3.14606V3.14606ZM10.147 0.0220581C10.2736 0.061232 10.3795 0.149066 10.4413 0.266259C10.5032 0.383452 10.516 0.520417 10.477 0.647058L6.47698 13.6471C6.43415 13.769 6.34578 13.8696 6.23041 13.9277C6.11504 13.9859 5.98163 13.9972 5.85814 13.9592C5.73464 13.9212 5.63066 13.8368 5.56799 13.7238C5.50533 13.6108 5.48883 13.4779 5.52198 13.3531L9.52198 0.353058C9.56115 0.226454 9.64899 0.120581 9.76618 0.0587034C9.88337 -0.00317456 10.0203 -0.0159954 10.147 0.0230582V0.0220581Z" fill="black"/>
</svg>
